<svg width="16" height="16" viewBox="0 0 16 16" fill="none" xmlns="http://www.w3.org/2000/svg">
<g id="003-linkedin">
<path id="Vector" d="M14.9965 15L15 14.9994V9.64081C15 7.01936 14.4621 5 11.5412 5C10.1371 5 9.19476 5.80847 8.81007 6.57494H8.76945V5.24473H6V14.9994H8.88376V10.1692C8.88376 8.89748 9.11353 7.66772 10.6146 7.66772C12.0936 7.66772 12.1157 9.11908 12.1157 10.2508V15H14.9965Z" fill="white"/>
<path id="Vector_2" d="M1 6H4V15H1V6Z" fill="white"/>
<path id="Vector_3" d="M2.5 1C1.67193 1 1 1.6688 1 2.49301C1 3.31722 1.67193 4 2.5 4C3.32807 4 4 3.31722 4 2.49301C3.99948 1.6688 3.32755 1 2.5 1Z" fill="white"/>
</g>
</svg>
