<svg width="44" height="44" viewBox="0 0 44 44" fill="none" xmlns="http://www.w3.org/2000/svg">
<path d="M20.1821 40.4357C27.8071 39.0887 32.7356 30.9047 31.1902 22.1561C29.6447 13.4076 22.2106 7.4074 14.5856 8.75436C6.96059 10.1013 2.03211 18.2853 3.57754 27.0339C5.12297 35.7824 12.5571 41.7826 20.1821 40.4357Z" fill="#6E8F15"/>
<path d="M21.4302 39.745C29.0552 38.398 33.9836 30.214 32.4382 21.4654C30.8928 12.7169 23.4587 6.71672 15.8337 8.06368C8.20864 9.41064 3.28016 17.5947 4.82559 26.3432C6.37102 35.0918 13.8051 41.0919 21.4302 39.745Z" fill="#235D41"/>
<path d="M19.269 37.5625C16.5456 37.5625 13.8315 36.4291 11.6209 34.375C9.31934 32.231 7.73121 29.2319 7.14809 25.9291C5.83559 18.4797 9.91184 11.5122 16.2418 10.3956C16.8151 10.2946 17.396 10.2438 17.9781 10.2438C20.7015 10.2438 23.4156 11.3763 25.6262 13.4313C27.9278 15.5744 29.5159 18.5744 30.099 21.8772C31.4115 29.3256 27.3353 36.2941 21.0053 37.4097C20.4321 37.5111 19.8511 37.5622 19.269 37.5625Z" fill="white"/>
<path d="M19.2676 34.8063C17.2444 34.8063 15.196 33.9353 13.5001 32.3556C11.6344 30.6184 10.3435 28.1659 9.86444 25.4491C9.34225 22.4903 9.81944 19.5541 11.2079 17.1813C12.511 14.9547 14.4676 13.51 16.7166 13.1134C17.1315 13.0388 17.5522 13.0008 17.9738 13C19.9969 13 22.0444 13.87 23.7413 15.4497C25.6069 17.1878 26.8979 19.6403 27.3769 22.3562C27.8991 25.315 27.4219 28.2513 26.0326 30.625C24.7304 32.8516 22.7738 34.2963 20.5248 34.6928C20.1097 34.7661 19.689 34.8031 19.2676 34.8034V34.8063Z" fill="#235D41"/>
<path d="M19.2678 31.1603C18.17 31.1603 17.0047 30.6372 15.9865 29.6875C14.6965 28.4866 13.7984 26.7569 13.4553 24.8125C13.0803 22.7041 13.4028 20.6463 14.3553 19.0197C15.1053 17.7316 16.1722 16.9075 17.3506 16.7003C17.5564 16.6637 17.765 16.6452 17.974 16.645C19.0718 16.645 20.2372 17.1681 21.2553 18.1169C22.5443 19.3178 23.4434 21.0485 23.7865 22.9919C24.1615 25.1003 23.839 27.1572 22.8865 28.7847C22.1365 30.0728 21.0687 30.896 19.8912 31.1041C19.6854 31.1406 19.4768 31.1591 19.2678 31.1594V31.1603Z" fill="white"/>
<path d="M19.5302 27.4484C20.7546 27.188 21.41 25.3912 20.9939 23.435C20.5779 21.4789 19.2481 20.1043 18.0236 20.3647C16.7992 20.6251 16.1439 22.4219 16.5599 24.3781C16.976 26.3342 18.3058 27.7089 19.5302 27.4484Z" fill="#235D41"/>
<path d="M34.4211 16.0123L18.4161 23.8301C18.3566 23.8751 18.3111 23.9361 18.2849 24.006C18.2587 24.0758 18.2528 24.1517 18.268 24.2248C18.3224 24.4123 18.5774 24.5435 18.8305 24.446L34.7952 16.8091L37.4558 17.5732L43.093 14.9613L38.8395 13.8532L39.5455 10.166L35.1392 13.3535L34.4211 16.0123Z" fill="#6E8F15"/>
<path d="M17.9512 40.6206H8.54617V39.1056H17.9512V40.6206Z" fill="#6E8F15"/>
<path d="M18.6211 39.1047H9.19172V37.5897H18.6211V39.1047Z" fill="#235D41"/>
<path d="M17.7949 37.5887H8.38992V36.0737H17.7949V37.5887Z" fill="#6E8F15"/>
<path d="M10.4688 40.6206H1.06375V39.1056H10.4688V40.6206Z" fill="#235D41"/>
<path d="M10.4688 39.1047H2.1925V37.5897H10.4688V39.1047Z" fill="#6E8F15"/>
<path d="M10.3105 37.5887H0.905544V36.0737H10.3105V37.5887Z" fill="#235D41"/>
<path d="M10.4688 36.0747H1.06375V34.5597H10.4688V36.0747Z" fill="#6E8F15"/>
<path d="M11.5977 34.5588H2.19265V33.0438H11.5977V34.5588Z" fill="#235D41"/>
<path d="M10.3105 33.0428H0.905544V31.5278H10.3105V33.0428Z" fill="#6E8F15"/>
<path d="M13.6245 36.9103C16.1203 36.9103 18.1436 34.8871 18.1436 32.3913C18.1436 29.8954 16.1203 27.8722 13.6245 27.8722C11.1287 27.8722 9.10547 29.8954 9.10547 32.3913C9.10547 34.8871 11.1287 36.9103 13.6245 36.9103Z" fill="#235D41" stroke="white"/>
<path d="M14.0911 35.1475C13.7801 35.2067 13.4584 35.1401 13.1964 34.9624C12.9344 34.7848 12.7535 34.5105 12.6933 34.1997L12.6155 33.7957C12.6012 33.7211 12.6171 33.6439 12.6598 33.581C12.7024 33.5182 12.7683 33.4748 12.8428 33.4605C12.9174 33.4462 12.9947 33.4621 13.0575 33.5048C13.1204 33.5474 13.1637 33.6133 13.178 33.6879L13.2558 34.0919C13.2947 34.2458 13.3909 34.3789 13.5248 34.4641C13.6586 34.5493 13.82 34.5801 13.9758 34.5501C14.1317 34.5202 14.2701 34.4317 14.3629 34.303C14.4556 34.1742 14.4955 34.0148 14.4746 33.8575L14.3808 33.3579C14.3495 33.1961 14.2553 33.0534 14.119 32.961C13.9826 32.8685 13.8151 32.8339 13.6533 32.8647C13.3423 32.9244 13.0203 32.858 12.7581 32.6803C12.496 32.5025 12.3152 32.2279 12.2555 31.9169L12.0896 31.0554C12.0302 30.7443 12.0967 30.4225 12.2744 30.1604C12.4521 29.8983 12.7265 29.7175 13.0374 29.6575L13.1564 29.635C13.4673 29.5754 13.7892 29.6416 14.0513 29.8192C14.3134 29.9967 14.4943 30.2711 14.5543 30.5819L14.7155 31.42C14.7255 31.4928 14.7073 31.5666 14.6646 31.6262C14.6218 31.6859 14.5578 31.727 14.4858 31.7409C14.4137 31.7548 14.339 31.7406 14.2771 31.7012C14.2152 31.6617 14.1708 31.6 14.153 31.5288L13.9918 30.6907C13.9604 30.5289 13.8663 30.3862 13.7299 30.2938C13.5935 30.2014 13.4261 30.1667 13.2643 30.1975L13.1452 30.22C12.9835 30.2514 12.8407 30.3455 12.7483 30.4819C12.6559 30.6183 12.6213 30.7857 12.6521 30.9475L12.818 31.8091C12.8493 31.9708 12.9435 32.1136 13.0799 32.206C13.2162 32.2984 13.3837 32.333 13.5455 32.3022C13.8565 32.2429 14.1784 32.3093 14.4404 32.487C14.7025 32.6647 14.8834 32.9391 14.9433 33.25L15.0371 33.7497C15.0967 34.0605 15.0306 34.3823 14.8533 34.6443C14.6759 34.9064 14.4018 35.0874 14.0911 35.1475Z" fill="white"/>
<path d="M14.3196 36.0129C14.2451 36.0272 14.168 36.0113 14.1052 35.9687C14.0425 35.9262 13.9992 35.8605 13.9849 35.786L12.7024 29.1044C12.6881 29.0298 12.704 28.9526 12.7466 28.8898C12.7893 28.8269 12.8551 28.7836 12.9297 28.7693C13.0043 28.755 13.0815 28.7709 13.1444 28.8135C13.2072 28.8562 13.2506 28.922 13.2649 28.9966L14.5474 35.6773C14.5617 35.752 14.5457 35.8293 14.503 35.8922C14.4603 35.9552 14.3943 35.9986 14.3196 36.0129Z" fill="white"/>
<path d="M10.2285 15.7704L21.8535 7.82129L22.5801 12.1563L32.6966 5.19348L34.3391 7.57098L20.6741 17.6754L19.6232 13.0769L10.9513 19.975L10.2285 15.7704Z" fill="#6E8F15"/>
<path d="M31.7617 4.50346L34.8161 9.43096L37.1814 3.56689L31.7617 4.50346Z" fill="#6E8F15"/>
</svg>
