<svg width="20" height="20" viewBox="0 0 20 20" fill="none" xmlns="http://www.w3.org/2000/svg">
<g id="fi_18265006">
<g id="Icon">
<path id="Vector" d="M14.7342 12.1001C14.3759 11.6097 13.8376 11.2817 13.2376 11.1879C12.6376 11.0942 12.0249 11.2424 11.5342 11.6001L10.5925 12.2834C9.238 11.0577 8.15139 9.56543 7.40082 7.90005L8.33416 7.21672C8.82634 6.85817 9.15625 6.31907 9.25154 5.71764C9.34683 5.1162 9.19973 4.50152 8.84249 4.00839L7.87582 2.66672C7.7014 2.42167 7.47945 2.21422 7.22318 2.05674C6.96692 1.89925 6.68157 1.79496 6.38416 1.75005C5.7966 1.6634 5.19845 1.80994 4.71749 2.15839L3.23416 3.20839C2.76296 3.54845 2.39622 4.01347 2.17534 4.55094C1.95446 5.08841 1.88824 5.67693 1.98416 6.25005C2.40757 8.71769 3.39488 11.0543 4.8692 13.0779C6.34353 15.1014 8.26506 16.7574 10.4842 17.9167C10.9302 18.1459 11.4243 18.2659 11.9258 18.2667C12.5855 18.2685 13.2282 18.0582 13.7592 17.6667L15.2092 16.6667C15.7008 16.3097 16.0305 15.772 16.1258 15.172C16.2212 14.5719 16.0743 13.9585 15.7175 13.4667L14.7342 12.1001ZM14.4758 15.6417L13.0258 16.6667C12.7439 16.8711 12.4109 16.9933 12.0637 17.0198C11.7165 17.0462 11.3688 16.976 11.0592 16.8167C9.00316 15.7406 7.22487 14.2021 5.86418 12.3223C4.50349 10.4425 3.5975 8.27265 3.21749 5.98339C3.15955 5.6395 3.1991 5.28626 3.33165 4.9637C3.46421 4.64114 3.68448 4.36216 3.96749 4.15839L5.40916 3.16672C5.58972 3.03915 5.80476 2.96941 6.02582 2.96672H6.18416C6.3199 2.98769 6.45016 3.0353 6.56744 3.10681C6.68471 3.17832 6.78668 3.27231 6.86749 3.38339L7.85082 4.75005C8.01133 4.97356 8.07689 5.2515 8.03317 5.52317C7.98945 5.79485 7.84001 6.03819 7.61749 6.20005L6.26749 7.18339C6.15491 7.26598 6.07323 7.38388 6.03547 7.51831C5.99771 7.65273 6.00605 7.79592 6.05916 7.92505C6.94112 10.1096 8.34617 12.044 10.1508 13.5584C10.2599 13.6449 10.395 13.692 10.5342 13.692C10.6734 13.692 10.8085 13.6449 10.9175 13.5584L12.2675 12.5834C12.3784 12.5026 12.5043 12.4446 12.6377 12.4126C12.7712 12.3806 12.9096 12.3753 13.0452 12.3969C13.1807 12.4186 13.3106 12.4669 13.4274 12.5389C13.5442 12.6109 13.6456 12.7054 13.7258 12.8167L14.7008 14.1667C14.7835 14.2781 14.8434 14.4048 14.8769 14.5394C14.9103 14.674 14.9168 14.814 14.8959 14.9511C14.875 15.0883 14.8271 15.2199 14.755 15.3385C14.6829 15.457 14.588 15.5601 14.4758 15.6417ZM10.9092 4.92505C10.9366 4.84391 10.9806 4.76937 11.0384 4.70618C11.0963 4.64299 11.1666 4.59254 11.245 4.55805C11.3234 4.52355 11.4081 4.50577 11.4938 4.50582C11.5794 4.50588 11.6641 4.52378 11.7425 4.55839C12.6923 4.90961 13.5163 5.53522 14.1098 6.35575C14.7033 7.17628 15.0396 8.15469 15.0758 9.16672C15.0803 9.3311 15.0199 9.49064 14.9076 9.61075C14.7953 9.73086 14.6401 9.80187 14.4758 9.80839C14.3143 9.80852 14.159 9.74611 14.0425 9.63425C13.926 9.5224 13.8573 9.36978 13.8508 9.20839C13.8243 8.4459 13.5727 7.70831 13.1279 7.08847C12.683 6.46863 12.0647 5.99426 11.3508 5.72505C11.2677 5.70414 11.1898 5.66636 11.1219 5.61406C11.054 5.56175 10.9976 5.49605 10.9562 5.42102C10.9147 5.34599 10.8892 5.26324 10.8811 5.17792C10.873 5.0926 10.8826 5.00653 10.9092 4.92505ZM18.0592 9.00839C18.0731 9.17383 18.0216 9.33815 17.9156 9.46595C17.8096 9.59376 17.6577 9.67483 17.4925 9.69172H17.4342C17.2786 9.69054 17.1288 9.63212 17.0136 9.5276C16.8983 9.42308 16.8255 9.27979 16.8092 9.12505C16.6884 7.77636 16.2047 6.48552 15.4095 5.38953C14.6143 4.29354 13.5372 3.43328 12.2925 2.90005C12.14 2.83486 12.0196 2.71175 11.9579 2.55781C11.8962 2.40387 11.8981 2.23172 11.9633 2.07922C12.0285 1.92672 12.1516 1.80637 12.3056 1.74464C12.4595 1.68291 12.6317 1.68486 12.7842 1.75005C14.2394 2.36724 15.4992 3.36887 16.4284 4.64755C17.3577 5.92622 17.9214 7.43371 18.0592 9.00839Z" fill="white"/>
</g>
</g>
</svg>
